<svg width="20" height="21" viewBox="0 0 20 21" fill="none" xmlns="http://www.w3.org/2000/svg">
<path d="M16.125 5.33255V4.12545L15.2715 4.979L3.84677 16.4037C3.82362 16.4235 3.79399 16.4341 3.76342 16.4336C3.73104 16.433 3.70014 16.4199 3.67724 16.397C3.65433 16.3741 3.64122 16.3432 3.64064 16.3108C3.64011 16.2803 3.65078 16.2506 3.67054 16.2275L15.0953 4.80277L15.9488 3.94922H14.7417H6.87503C6.84188 3.94922 6.81009 3.93605 6.78665 3.91261C6.7632 3.88917 6.75003 3.85737 6.75003 3.82422C6.75003 3.79107 6.7632 3.75927 6.78665 3.73583C6.81009 3.71239 6.84188 3.69922 6.87503 3.69922H16.25C16.2832 3.69922 16.315 3.71239 16.3384 3.73583C16.3619 3.75927 16.375 3.79107 16.375 3.82422V13.1992C16.375 13.2324 16.3619 13.2642 16.3384 13.2876C16.315 13.311 16.2832 13.3242 16.25 13.3242C16.2169 13.3242 16.1851 13.311 16.1616 13.2876C16.1382 13.2642 16.125 13.2324 16.125 13.1992V5.33255Z" fill="#374151" stroke="white"/>
</svg>
