<svg width="48" height="48" viewBox="0 0 48 48" fill="none" xmlns="http://www.w3.org/2000/svg">
<path d="M0 24C0 10.7452 10.7452 0 24 0C37.2548 0 48 10.7452 48 24C48 37.2548 37.2548 48 24 48C10.7452 48 0 37.2548 0 24Z" fill="#6366F1"/>
<path d="M18.633 22.25C19.439 22.25 20.166 21.804 20.664 21.17C21.4403 20.1796 22.4147 19.3622 23.525 18.77C24.248 18.386 24.875 17.814 25.178 17.055C25.3908 16.5233 25.5001 15.9558 25.5 15.383V14.75C25.5 14.5511 25.579 14.3603 25.7197 14.2197C25.8603 14.079 26.0511 14 26.25 14C26.8467 14 27.419 14.2371 27.841 14.659C28.263 15.081 28.5 15.6533 28.5 16.25C28.5 17.402 28.24 18.493 27.777 19.468C27.511 20.026 27.884 20.75 28.502 20.75M28.502 20.75H31.628C32.654 20.75 33.573 21.444 33.682 22.465C33.727 22.887 33.75 23.315 33.75 23.75C33.7541 26.4863 32.8191 29.1412 31.101 31.271C30.713 31.753 30.114 32 29.496 32H25.48C24.997 32 24.516 31.922 24.057 31.77L20.943 30.73C20.4841 30.5774 20.0036 30.4997 19.52 30.5H17.904M28.502 20.75H26.25M17.904 30.5C17.987 30.705 18.077 30.905 18.174 31.102C18.371 31.502 18.096 32 17.651 32H16.743C15.854 32 15.03 31.482 14.771 30.632C14.4246 29.4952 14.2491 28.3133 14.25 27.125C14.25 25.572 14.545 24.089 15.081 22.727C15.387 21.953 16.167 21.5 17 21.5H18.053C18.525 21.5 18.798 22.056 18.553 22.46C17.6989 23.866 17.2484 25.4799 17.251 27.125C17.251 28.319 17.483 29.458 17.905 30.5H17.904Z" stroke="white" stroke-width="1.5" stroke-linecap="round" stroke-linejoin="round"/>
</svg>
