<svg width="48" height="48" viewBox="0 0 48 48" fill="none" xmlns="http://www.w3.org/2000/svg">
<path d="M0 24C0 10.7452 10.7452 0 24 0C37.2548 0 48 10.7452 48 24C48 37.2548 37.2548 48 24 48C10.7452 48 0 37.2548 0 24Z" fill="#6366F1"/>
<path d="M33 20.25C33 17.765 30.901 15.75 28.312 15.75C26.377 15.75 24.715 16.876 24 18.483C23.285 16.876 21.623 15.75 19.687 15.75C17.1 15.75 15 17.765 15 20.25C15 27.47 24 32.25 24 32.25C24 32.25 33 27.47 33 20.25Z" stroke="white" stroke-width="1.5" stroke-linecap="round" stroke-linejoin="round"/>
</svg>
