<svg width="22" height="20" viewBox="0 0 22 20" fill="none" xmlns="http://www.w3.org/2000/svg">
<path d="M0.00195312 4.58083C0.00195312 4.36848 0.126706 4.17569 0.321134 4.08756L9.23096 0.0495025C9.59224 -0.114222 10.0028 0.148182 10.0028 0.542774V15.4192C10.0028 15.6315 9.87808 15.8244 9.68365 15.9124L0.773826 19.9505C0.412604 20.1142 0.00195312 19.8518 0.00195312 19.4573V4.58083Z" fill="#6366F1"/>
<path d="M12.002 4.58083C12.002 4.36848 12.1267 4.17569 12.3211 4.08756L21.231 0.0495025C21.5922 -0.114222 22.0028 0.148182 22.0028 0.542774V15.4192C22.0028 15.6315 21.8781 15.8244 21.6837 15.9124L12.7738 19.9505C12.4125 20.1142 12.002 19.8518 12.002 19.4573V4.58083Z" fill="#6366F1"/>
</svg>
