<svg width="40" height="40" viewBox="0 0 40 40" fill="none" xmlns="http://www.w3.org/2000/svg">
<path d="M35 0H5.00001C2.23858 0 0 2.23858 0 5.00001V35C0 37.7614 2.23858 40 5.00001 40H35C37.7614 40 40 37.7614 40 35V5.00001C40 2.23858 37.7614 0 35 0Z" fill="#6366F1"/>
<path d="M6.31641 12.8672C6.31641 12.5923 6.47689 12.3428 6.72701 12.2287L18.189 7.00158C18.6537 6.78964 19.1819 7.12932 19.1819 7.6401V26.897C19.1819 27.1719 19.0214 27.4215 18.7713 27.5355L7.30937 32.7627C6.84468 32.9745 6.31641 32.6349 6.31641 32.1242V12.8672Z" fill="white"/>
<path d="M21.0527 12.8672C21.0527 12.5923 21.2132 12.3428 21.4633 12.2287L32.9253 7.00158C33.39 6.78964 33.9183 7.12932 33.9183 7.6401V26.897C33.9183 27.1719 33.7578 27.4215 33.5077 27.5355L22.0456 32.7627C21.5809 32.9745 21.0527 32.6349 21.0527 32.1242V12.8672Z" fill="white"/>
</svg>
